<?xml version="1.0" encoding="UTF-8" standalone="no"?>
<svg
   version="1.1"
   id="svg10972"
   width="874"
   height="563"
   viewBox="0 0 874 563"
   xmlns="http://www.w3.org/2000/svg">
  <g
     id="g10978">
    <path
       style="fill:#000000"
       d="m 210.24241,298.63952 c -10.99087,-3.64531 -18.64779,-10.04401 -23.48445,-19.62537 -9.9024,-19.61654 -1.81211,-44.30306 17.54669,-53.54155 8.50689,-4.05971 19.99327,-4.64728 28.51901,-1.45887 5.59238,2.09141 16.91875,10.77705 16.91875,12.97415 0,0.44212 -2.1084,2.36558 -4.68532,4.27436 l -4.68533,3.47051 -3.16615,-3.35709 c -9.01029,-9.55369 -23.29512,-9.84438 -33.48651,-0.68144 -6.62857,5.95965 -8.97916,11.16441 -8.96692,19.85485 0.0123,8.7556 2.98114,15.55873 9.06048,20.76242 4.31338,3.69208 11.87601,6.67186 16.93311,6.67186 5.21491,0 12.31639,-3.26712 16.75982,-7.71054 l 4.39817,-4.39817 4.41887,3.62093 c 5.01911,4.11279 4.96214,4.63649 -1.16991,10.75343 -6.10044,6.08542 -13.29481,9.05519 -22.80207,9.41247 -4.88442,0.18356 -9.69863,-0.22277 -12.10824,-1.02195 z m 164.30102,-22.93854 -23.69898,-24.21763 -0.051,23.75 -0.051,23.75 h -6 -6 l 0.0216,-38.75 0.0216,-38.75 5.15263,5.5 c 7.03839,7.51291 42.1074,43 42.49341,43 0.17089,0 0.31076,-10.575 0.31076,-23.5 v -23.5 h 6 6 v 38.5 c 0,21.175 -0.1125,38.48543 -0.25,38.46763 -0.1375,-0.0178 -10.91454,-10.93031 -23.94898,-24.25 z m 67.54273,23.3042 c -18.49717,-3.94099 -32.31573,-25.59806 -28.48954,-44.65008 2.65931,-13.24167 9.64298,-22.78702 20.82374,-28.46207 6.38282,-3.23975 7.24349,-3.40968 17.26983,-3.40968 9.65429,0 11.06278,0.25049 16.55222,2.94366 11.4537,5.6193 19.50817,16.71703 21.69028,29.88562 2.72464,16.44267 -6.48727,33.88481 -21.69028,41.06912 -6.61867,3.1277 -18.29347,4.29867 -26.15625,2.62343 z m 17.86152,-12.57611 c 6.15385,-2.09682 12.31566,-7.58135 15.51301,-13.80787 2.07755,-4.04583 2.62875,-6.51939 2.59332,-11.63785 -0.0539,-7.7798 -1.80911,-12.3281 -6.96443,-18.04648 -16.65751,-18.47684 -45.78794,-6.53755 -45.48717,18.6432 0.21529,18.02346 17.55611,30.56965 34.34527,24.849 z m 197.29473,12.15213 c -10.76034,-3.41198 -19.50595,-11.03635 -24.20049,-21.09785 -2.50731,-5.37375 -2.79951,-7.09593 -2.79951,-16.5 0,-9.65522 0.24795,-11.02319 3.08181,-17.00286 3.7763,-7.96829 10.56152,-14.94004 18.1802,-18.68 5.13066,-2.5186 6.79643,-2.81675 15.73799,-2.81694 8.74796,-1.7e-4 10.71323,0.33412 15.6965,2.66998 3.13307,1.4686 7.7803,4.75399 10.32718,7.30087 l 4.63069,4.63068 -4.5172,3.44914 c -2.48445,1.89702 -4.88314,3.44913 -5.33043,3.44913 -0.44728,0 -2.1513,-1.41768 -3.7867,-3.1504 -4.28026,-4.53493 -9.95906,-6.80568 -17.02004,-6.80568 -7.05533,0 -12.48532,2.21051 -17.40159,7.08405 -14.09387,13.97137 -9.12949,38.3481 9.23824,45.3628 5.8991,2.25288 17.52866,1.71263 23.24934,-1.08006 l 3.91401,-1.91071 0.29381,-7.25 0.29381,-7.25 h -10.04381 -10.04381 v -6 -6 h 15.5 15.5 v 16.31194 16.31194 l -2.75,2.03313 c -10.10866,7.47353 -26.54151,10.49493 -37.75,6.94084 z m -581.5,-31.59785 v -32 h -11.5 -11.5 v -6 -6 h 28.5 28.5 v 6 6 h -11 -11 v 32 32 h -6 -6 z m 46,-6 v -38 h 25.5 25.5 v 6 6 h -19.5 -19.5 v 11 11 h 16 16 v 6 6 h -16 -16 v 9 9 h 19.5 19.5 v 6 6 h -25.5 -25.5 z m 141,0 v -38 h 6 6 v 17 17 h 16.5 16.5 v -17 -17 h 6.5 6.5 v 38 38 h -6.5 -6.5 v -15 -15 h -16.5 -16.5 v 15 15 h -6 -6 z m 293.76405,6.25 -0.26405,-31.75 -11.25,-0.28275 -11.25,-0.28275 v -5.96725 -5.96725 h 28.5 28.5 v 6 6 h -11 -11 v 32 32 h -5.98595 -5.98596 z m 46.23595,-6.25 v -38 h 6 6 v 38 38 h -6 -6 z m 112,0 v -38 h 25 25 v 6 6 h -19 -19 v 11 11 h 16 16 v 6 6 h -16 -16 v 9 9 h 19.5 19.5 v 6 6 h -25.5 -25.5 z m 67,-0.10478 v -38.10478 l 15.75,0.40113 c 18.14886,0.46223 23.5541,2.08199 29.71892,8.9057 4.90883,5.43349 6.72179,10.27725 6.88794,18.40273 0.11908,5.82329 -0.32773,7.95887 -2.65795,12.7041 -2.54625,5.18514 -6.2235,9.31121 -10.36291,11.62774 -1.30969,0.73294 -0.59057,2.40849 4.50496,10.49656 9.5082,15.09228 9.37685,13.6716 1.26402,13.6716 h -6.96538 l -6.36125,-10.25 -6.36126,-10.25 -6.70854,-0.29569 -6.70855,-0.29569 v 10.54569 10.54569 h -6 -6 z m 32.75914,3.11018 c 4.68526,-2.85664 7.23267,-7.56888 7.23712,-13.38737 0.008,-10.26501 -6.954,-15.61803 -20.31198,-15.61803 h -7.68428 v 15.5 15.5 l 8.75,-0.004 c 6.96646,-0.003 9.41432,-0.40878 12.00914,-1.99086 z"
       id="path11280"/>

  </g>
</svg>
