<?xml version="1.0" encoding="UTF-8" standalone="no"?>

<svg
   width="559"
   height="897"
   viewBox="0 0 147.90209 237.33126"
   version="1.1"
   id="svg1107"
   xmlns="http://www.w3.org/2000/svg">
    <g
     id="layer1">
    <path
       style="fill:#000000;stroke-width:0.698493"
       d="m 55.973083,231.18967 c -2.883077,-9.74039 -4.314833,-20.84012 -5.696316,-44.16068 l -0.803314,-13.56066 -2.455658,-4.44715 c -2.315164,-4.19271 -2.447615,-4.71949 -2.31506,-9.20728 0.08332,-2.82125 -0.235108,-6.25168 -0.781794,-8.42203 -0.851872,-3.38195 -0.851777,-3.82531 0.0011,-5.79912 0.517638,-1.19781 0.923605,-3.88907 0.923605,-6.12282 0,-4.50328 0.989441,-8.17833 3.360109,-12.4803 l 1.623527,-2.94618 0.620854,3.49118 c 1.451304,8.16094 4.841675,13.21537 14.207151,21.18032 2.675402,2.27529 4.558449,4.13779 4.184555,4.13887 -1.531403,0.005 -10.317016,-4.64638 -13.315356,-7.0487 -3.05393,-2.44685 -3.202198,-2.7172 -2.922658,-5.32898 0.363305,-3.39439 -0.858373,-5.25934 -2.929065,-4.47137 -1.183169,0.45024 -1.425526,1.05473 -1.425526,3.55555 0,6.57627 7.358116,14.31052 16.136224,16.9611 l 3.940045,1.1897 -3.325569,1.01261 c -4.39507,1.33826 -6.312545,1.27769 -9.840575,-0.31082 -2.493314,-1.12263 -2.939278,-1.64002 -2.939278,-3.41001 0,-4.28867 -4.199738,-4.92069 -4.892419,-0.73626 -0.567914,3.43067 0.668265,6.25378 3.619047,8.26499 2.235858,1.52392 3.819897,1.84303 9.356389,1.88479 3.665673,0.0277 6.66509,0.17224 6.665364,0.32128 9.8e-4,0.50809 -8.431334,6.17953 -9.187674,6.17953 -0.414464,0 -1.005543,-0.87081 -1.313522,-1.93514 -1.141167,-3.94368 -4.552595,-2.21464 -4.148913,2.10284 0.503182,5.38167 9.706538,6.60858 15.895971,2.11911 1.655005,-1.20047 3.711102,-2.87628 4.569089,-3.72403 1.49967,-1.4818 1.620284,-1.4818 3.119944,0 0.857997,0.84775 2.914083,2.52356 4.569099,3.72403 6.189422,4.48947 15.392782,3.26256 15.89596,-2.11911 0.403688,-4.31748 -3.007746,-6.04652 -4.148903,-2.10284 -0.705747,2.43896 -1.235369,2.42127 -5.10018,-0.17018 -6.051232,-4.05746 -5.964859,-4.34036 1.340395,-4.38984 5.473202,-0.037 7.04453,-0.35623 9.280336,-1.88482 2.950423,-2.01712 4.186593,-4.84218 3.619043,-8.27062 -0.68002,-4.10847 -4.892326,-3.56471 -4.892326,0.63153 0,3.90643 -5.885099,5.7922 -12.289866,3.93807 l -3.877166,-1.12242 3.922724,-1.11088 c 3.944317,-1.117 10.968908,-5.74652 13.11265,-8.64183 2.022238,-2.73119 3.102504,-5.72963 3.102504,-8.61138 0,-2.27589 -0.26786,-2.90442 -1.425523,-3.34496 -2.070704,-0.78797 -3.292376,1.07699 -2.929063,4.47137 0.279537,2.61178 0.131264,2.88213 -2.922666,5.32898 -2.945032,2.35961 -9.805559,5.98363 -13.995161,7.39283 -0.935983,0.3148 0.851472,-1.3807 3.972122,-3.7678 9.510838,-7.27518 14.637039,-14.46559 15.387803,-21.58412 0.195633,-1.8549 0.556262,-3.37253 0.801389,-3.37253 0.827649,0 3.969109,7.2489 4.543799,10.48481 0.31374,1.76651 0.41294,4.16326 0.22044,5.32611 -0.23814,1.43866 0.0327,2.89912 0.84779,4.57053 l 1.19777,2.45631 -1.15975,5.11079 c -0.90135,3.97211 -1.03326,5.66087 -0.59205,7.57983 0.64359,2.79915 0.1036,4.68663 -3.03651,10.61392 -1.780858,3.36155 -1.913905,4.08595 -2.290492,12.47101 -0.964132,21.46757 -2.972201,37.77103 -5.848575,47.4844 l -1.56392,5.2813 -0.325064,-22.79184 c -0.277371,-19.44816 -0.485426,-23.48583 -1.418157,-27.52224 -0.91825,-3.9737 -1.456052,-5.00555 -3.362152,-6.45051 -2.002113,-1.51778 -3.403594,-1.72016 -11.912553,-1.72016 -10.855759,0 -13.413339,0.81467 -14.736472,4.69404 -1.60354,4.7015 -2.201547,14.04256 -2.191034,34.22412 0.0058,10.99813 -0.04124,19.9966 -0.104336,19.9966 -0.06309,0 -0.793119,-2.29177 -1.622215,-5.09284 z M 41.211681,172.3917 c -7.352717,-11.41242 -11.071033,-22.90279 -11.100136,-34.30177 -0.01884,-7.38367 0.290398,-8.58858 2.034047,-7.92506 3.445815,1.31126 6.088185,-5.99704 4.653308,-12.87018 -1.012989,-4.85224 -3.440201,-6.74089 -8.226758,-6.40131 l -3.51018,0.24904 -0.333519,-2.70598 c -0.183432,-1.48828 -0.03114,-3.71213 0.338419,-4.9419 0.560275,-1.86439 0.509942,-2.50732 -0.302914,-3.869132 C 21.992957,94.983019 14.109342,98.03519 5.952363,106.90838 l -4.1017276,4.46186 1.1929786,-3.12415 c 0.6561396,-1.71827 2.8634238,-5.67525 4.9050821,-8.793262 4.3574359,-6.654647 8.2723059,-9.35983 14.5014719,-10.020587 4.918887,-0.52178 9.709852,1.192896 15.58843,5.579026 l 4.254481,3.174363 -4.661998,0.457911 c -5.761409,0.565894 -7.218287,2.051279 -5.730524,5.842619 0.50847,1.29575 2.140608,3.51701 3.626976,4.93612 3.00566,2.86965 4.556758,3.04912 16.125405,1.86559 l 5.95628,-0.60935 -3.119953,1.31587 c -7.667518,3.23385 -14.094759,9.87337 -16.606775,17.15526 -2.821799,8.17988 -0.763677,23.48619 5.587257,41.55257 1.704456,4.84866 2.926701,8.81571 2.716098,8.81571 -0.210604,0 -2.448974,-3.20679 -4.974164,-7.12623 z m 61.571969,6.67551 c 0.1413,-0.46167 1.82175,-5.67728 3.73432,-11.59025 4.57494,-14.14403 5.37364,-17.90469 5.69685,-26.82362 0.23321,-6.435 0.10002,-8.00695 -0.95966,-11.32583 -2.36949,-7.42126 -8.57196,-13.93096 -16.490136,-17.307 l -3.119954,-1.33024 5.105382,0.45313 c 2.807958,0.24923 6.673748,0.68479 8.590668,0.96791 4.31881,0.63788 6.99456,-0.60648 9.91957,-4.61304 2.23258,-3.05816 2.87119,-6.35975 1.48582,-7.681948 -0.39,-0.372206 -2.8781,-0.878829 -5.52912,-1.125838 l -4.82005,-0.449101 3.68553,-2.714213 c 5.52411,-4.068238 8.89726,-5.567464 13.68513,-6.082472 9.15672,-0.984948 16.73194,5.481051 22.39706,19.117512 l 1.0719,2.58021 -1.41815,-1.52561 c -7.80335,-8.39461 -12.67374,-11.850912 -16.90548,-11.997043 -1.47041,-0.05083 -3.24595,0.37219 -3.94564,0.939948 -1.33189,1.08074 -1.71423,4.257865 -0.69784,5.798905 0.3159,0.47896 0.41789,2.05699 0.22665,3.50678 -0.34734,2.63311 -0.35264,2.6364 -4.8661,3.03255 -3.96162,0.34771 -4.70604,0.68108 -6.04111,2.70528 -1.2764,1.93522 -1.52271,3.06049 -1.52271,6.95643 0,6.23353 1.55766,9.54404 4.42861,9.41224 2.32592,-0.10674 2.64219,0.85961 2.65446,8.11105 0.0147,8.68981 -3.51568,21.17277 -8.60478,30.42551 -2.15667,3.92111 -8.27893,12.25016 -7.76122,10.55875 z M 25.112339,153.00038 C 21.200261,139.7351 20.240007,132.39114 19.611087,110.92741 L 19.277179,99.53148 h 1.33857 c 1.245726,0 1.380362,0.4799 1.941031,6.91855 0.883178,10.1423 2.441825,12.06741 6.948165,8.5818 2.147941,-1.66142 2.229542,-1.66376 3.503067,-0.10027 l 1.303895,1.60083 -1.805572,2.30349 c -0.993061,1.26693 -2.643429,4.88278 -3.667478,8.03523 -1.858081,5.71995 -1.861911,5.7588 -1.861911,18.86709 0,7.22443 -0.02967,13.13594 -0.06586,13.13668 -0.03625,4.1e-4 -0.84566,-2.64282 -1.798739,-5.87454 z m 97.325541,-4.01491 c 0.20133,-7.86056 0.04,-11.64664 -0.67693,-15.88267 -1.05051,-6.20718 -3.62907,-12.92005 -5.78598,-15.06279 l -1.42103,-1.41169 1.45446,-1.7346 1.45445,-1.73462 1.90693,1.78688 c 4.40932,4.13172 6.60278,1.323 7.04037,-9.01516 0.25575,-6.042231 0.34584,-6.39934 1.61443,-6.39934 1.33562,0 1.34357,0.05861 1.34357,9.9247 0,19.23586 -1.43119,30.65108 -5.57249,44.44656 l -1.62211,5.40357 z m -49.507948,1.29778 c -0.562178,-0.94184 -2.111138,-2.68006 -3.442137,-3.86269 -2.640241,-2.34595 -4.352021,-5.93597 -5.265421,-11.04285 l -0.587896,-3.28694 2.244968,3.86689 c 4.081401,7.03003 9.757219,8.42831 14.577991,3.59136 1.302156,-1.30653 2.879989,-3.58812 3.50628,-5.07022 0.923031,-2.18434 1.138151,-2.36892 1.135799,-0.97457 -0.0049,2.9064 -2.010039,8.61022 -3.732235,10.61672 -2.867017,3.34028 -7.027001,7.87477 -7.224397,7.87477 -0.104943,0 -0.650765,-0.77061 -1.212952,-1.71247 z M 12.626486,139.60842 c -0.696247,-3.26522 -1.544111,-8.6555 -1.884161,-11.97839 l -0.618259,-6.04162 2.663973,-7.97628 c 2.416508,-7.23531 2.763073,-7.88244 3.730742,-6.96619 1.489023,1.4099 2.01546,7.42391 0.929505,10.61871 -1.664012,4.8954 -2.79793,12.08053 -3.17361,20.10988 l -0.382294,8.17066 z m 122.285604,-2.36738 c -0.20041,-4.8705 -0.87102,-9.74264 -2.06933,-15.03408 -2.04392,-9.02552 -2.23935,-13.16803 -0.71962,-15.25329 1.29738,-1.78015 1.48602,-1.47255 4.27018,6.96252 2.42658,7.35176 2.60168,11.31836 0.93553,21.19544 -1.69011,10.01933 -2.07804,10.36113 -2.41676,2.12941 z M 69.734647,109.68372 c -1.371404,-8.16864 -0.728761,-32.350125 0.798204,-30.034989 0.471719,0.715198 0.460012,2.535 -0.04507,7.000283 -0.823696,7.282898 -0.867431,14.979006 -0.124219,21.860246 0.700593,6.4866 0.367349,7.10887 -0.628956,1.17446 z m 9.215646,-0.6484 c 0.195298,-2.11993 0.324152,-5.79511 0.403951,-8.45837 0.09542,-3.183762 0.115,-7.581797 -0.2871,-12.254253 -0.440231,-5.115476 -0.677776,-7.310419 -0.245216,-7.966251 0.33443,-0.507064 0.80376,-0.625233 1.04295,-0.262595 0.745407,1.130022 0.191733,28.091509 -0.302158,30.618529 -0.999371,5.11333 -1.071215,3.303 -0.612427,-1.67706 z m -39.75795,-0.86693 c -0.66719,-0.63979 -0.525468,-0.97402 0.716626,-1.69003 1.944743,-1.12104 8.072172,-2.65129 10.325807,-2.57876 1.310688,0.0422 0.919582,0.40792 -1.701788,1.59132 -1.871976,0.8451 -4.122191,1.97863 -5.000494,2.51894 -1.920807,1.18164 -3.223588,1.22923 -4.340151,0.15852 z m 65.658357,-0.51487 c -0.84879,-0.69841 -3.01858,-1.81176 -4.82176,-2.47409 -2.833799,-1.04094 -3.009181,-1.21312 -1.29306,-1.26945 2.4914,-0.0818 8.56109,1.38761 10.60944,2.56838 1.24209,0.71601 1.38381,1.05024 0.71662,1.69003 -1.21078,1.16106 -3.44246,0.94057 -5.21124,-0.51487 z M 47.150428,96.06755 C 43.565305,94.112781 38.485793,89.613204 36.808683,86.90654 l -1.166217,-1.882155 2.048966,-0.58279 c 1.43971,-0.409514 2.048958,-1.036674 2.048958,-2.109221 0,-2.61556 -4.467514,-11.816835 -7.261405,-14.955561 -1.466144,-1.647097 -4.675533,-6.076316 -7.131964,-9.842691 l -4.466244,-6.847979 1.488108,-1.478338 c 0.917445,-0.911415 1.488105,-2.264938 1.488105,-3.529584 0,-1.163369 0.336364,-2.051257 0.777086,-2.051257 0.494709,0 1.013586,1.822501 1.427873,5.015247 0.74809,5.765184 3.123149,11.944697 5.631813,14.653084 2.207412,2.383137 5.038083,3.884512 12.529497,6.645556 6.620927,2.440216 9.903434,4.884399 12.284412,9.147115 1.551772,2.778161 4.317348,11.239854 4.950645,15.147261 0.300992,1.857082 0.250447,1.909992 -0.647552,0.677844 -1.488921,-2.04297 -4.931657,-3.982282 -7.069534,-3.982282 -3.851763,0 -5.318757,-1.495075 -8.095984,-8.250935 -1.713612,-4.168535 -2.978957,-6.370237 -3.661036,-6.370237 -1.586203,0 -1.821265,1.380113 -0.764767,4.490086 2.335067,6.873651 6.931163,13.207716 11.378207,15.680759 l 2.175246,1.209678 -2.269059,0.02969 c -1.247984,0.01624 -3.657016,-0.727201 -5.353409,-1.65215 z m 10.46417,-8.586053 c 1.002094,-1.678864 0.993365,-1.79168 -0.300306,-3.879524 -1.009885,-1.629835 -1.645405,-2.029311 -1.838274,-1.066074 -0.596929,2.981291 -1.399367,12.670556 -1.963167,0.926575 0.0527,-2.869344 -0.919744,-4.656825 -2.356676,-4.404191 -2.134374,0.375237 -2.293192,3.921521 -0.333737,7.452193 1.840162,3.315728 5.113347,3.783745 6.79216,0.971163 z m 38.474774,9.073538 c 4.546968,-2.684496 9.061518,-8.935758 11.378208,-15.755332 1.0565,-3.109973 0.82143,-4.490086 -0.76477,-4.490086 -0.68207,0 -1.94742,2.201702 -3.66104,6.370237 -2.77722,6.75586 -4.244216,8.250935 -8.095977,8.250935 -2.137874,0 -5.580609,1.939312 -7.069541,3.982282 -0.897999,1.232148 -0.948543,1.179238 -0.647551,-0.677844 0.633306,-3.907407 3.398881,-12.3691 4.950654,-15.147261 2.380974,-4.262716 5.663483,-6.706899 12.284405,-9.147115 7.49141,-2.761044 10.32208,-4.262419 12.52949,-6.645556 2.50868,-2.708387 4.88374,-8.8879 5.63182,-14.653084 0.41429,-3.192746 0.93318,-5.015247 1.42786,-5.015247 0.44073,0 0.7771,0.887888 0.7771,2.051257 0,1.264646 0.57065,2.618169 1.48811,3.529584 l 1.4881,1.478338 -4.46624,6.847979 c -2.45644,3.766375 -5.66582,8.195594 -7.13196,9.842691 -2.79389,3.138726 -7.2614,12.340001 -7.2614,14.955561 0,1.081658 0.61982,1.704776 2.12723,2.138558 l 2.12724,0.612158 -2.26906,2.991177 c -3.41988,4.508276 -9.90805,8.932979 -13.759874,9.383738 l -3.258046,0.381283 z m 1.775216,-10.044702 c 1.959446,-3.530655 1.800633,-7.076971 -0.333743,-7.452193 -1.436928,-0.252617 -2.057713,0.340357 -2.181217,3.041165 -0.403835,8.831484 -0.843812,9.409884 -1.940479,0.331137 -0.119606,-0.990189 -1.026531,-0.458447 -2.036424,1.171407 -1.293662,2.087828 -1.302392,2.200644 -0.300296,3.879506 1.678803,2.81258 4.951986,2.344582 6.792159,-0.971161 z M 0.36165155,89.919063 C 2.438914,84.644696 8.5147026,76.6207 8.9459437,78.582182 c 0.1116977,0.508074 0.5623736,1.655953 1.0015059,2.550855 0.7386384,1.505274 0.9175934,1.528358 2.3904134,0.308241 0.875602,-0.725367 1.670257,-2.138338 1.765895,-3.139927 0.258447,-2.706525 -2.857022,-7.547026 -6.7613451,-10.505092 l -3.3966261,-2.5734 2.0701595,-0.588838 c 2.8012316,-0.79677 8.2499617,0.03078 10.1521337,1.541842 l 1.551996,1.232907 -1.469657,1.460006 c -2.056681,2.043159 -1.836967,3.577502 0.838785,5.857598 2.180138,1.857775 2.288032,2.135685 1.941278,5.000434 -0.201934,1.668318 -0.565511,3.344829 -0.807948,3.725561 -0.242439,0.380732 -2.200903,1.056647 -4.35216,1.502053 -5.651801,1.170143 -9.2793059,2.537355 -11.7705458,4.43634 -1.4135996,1.077537 -2.02804389,1.264282 -1.73817665,0.528301 z M 146.72094,89.506831 c -2.36198,-1.939185 -4.44738,-2.76804 -10.50429,-4.17504 -2.94122,-0.683226 -5.53787,-1.541352 -5.77031,-1.90696 -0.23246,-0.365573 -0.58787,-2.029705 -0.7898,-3.698023 -0.34676,-2.864749 -0.23886,-3.142659 1.94129,-5.000434 2.67574,-2.280096 2.89545,-3.814439 0.83878,-5.857598 l -1.46966,-1.460006 1.55199,-1.232907 c 1.90217,-1.511101 7.35091,-2.338612 10.15213,-1.541842 l 2.07017,0.588838 -3.39664,2.5734 c -3.90431,2.958066 -7.01979,7.798567 -6.76135,10.505092 0.0957,1.001589 0.89031,2.41456 1.76591,3.139927 1.47282,1.220117 1.65178,1.197033 2.39041,-0.308241 0.43913,-0.894902 0.88981,-2.042781 1.00151,-2.550855 0.428,-1.946749 6.51257,6.068056 8.55847,11.273517 0.52481,1.335316 0.45363,1.319591 -1.57861,-0.348868 z M 30.947792,87.878066 c -2.183967,-1.111549 -4.530138,-2.040507 -5.213715,-2.064349 -1.7699,-0.06173 -2.03679,-1.277747 -0.686953,-3.129885 1.139575,-1.563632 1.236775,-1.538622 4.748279,1.221758 1.971684,1.549928 4.034394,3.571155 4.583792,4.491604 0.549408,0.920431 0.895537,1.634906 0.769183,1.587693 -0.126357,-0.04721 -2.016615,-0.995273 -4.200586,-2.106821 z m 83.401088,0.450333 c 0.52681,-0.882601 2.57106,-2.872881 4.54274,-4.422809 3.5115,-2.76038 3.6087,-2.78539 4.74827,-1.221758 1.30876,1.795768 1.08984,3.086543 -0.52353,3.086543 -0.59368,0 -3.02476,0.936616 -5.40238,2.081385 -3.91907,1.886924 -4.23347,1.931466 -3.3651,0.476639 z M 19.886139,85.905011 c 0,-0.87202 0.489486,-3.742579 1.087755,-6.37903 1.055965,-4.653474 1.373864,-7.271593 1.244092,-10.245953 -0.100778,-2.309715 -2.824303,-6.624602 -5.955739,-9.435669 -2.391974,-2.147257 -2.601698,-2.510194 -1.197852,-2.07297 5.402805,1.682735 13.475387,10.111981 17.156124,17.914117 l 1.839992,3.900271 -3.307665,-0.454753 c -4.203019,-0.577832 -6.889089,1.182001 -8.208886,5.378198 -0.997247,3.170703 -2.657821,4.042771 -2.657821,1.395789 z M 126.14305,84.509222 c -1.31979,-4.196197 -4.00585,-5.95603 -8.20888,-5.378198 l -3.30766,0.454753 1.83999,-3.900271 c 3.68074,-7.802136 11.75332,-16.231382 17.15612,-17.914117 1.40385,-0.437224 1.19413,-0.07437 -1.19784,2.07297 -3.13143,2.811067 -5.85497,7.125954 -5.95575,9.435669 -0.12978,2.97436 0.18813,5.592479 1.2441,10.245953 0.59826,2.636451 1.08776,5.50701 1.08776,6.37903 0,2.646982 -1.66059,1.774914 -2.65784,-1.395789 z M 73.292548,80.858314 c -1.440259,-4.280385 -4.562015,-8.5036 -6.848602,-9.265063 -0.959154,-0.319404 -1.743926,-1.116 -1.743926,-1.770237 0,-0.654222 -0.51905,-3.292866 -1.153443,-5.863646 -1.371854,-5.559193 -4.734429,-11.607433 -8.710116,-15.666799 -1.586604,-1.620005 -2.615401,-2.945468 -2.286195,-2.945468 1.873455,0 7.131518,3.15703 9.45656,5.677868 1.482701,1.607561 3.2854,2.922825 4.00599,2.922825 1.871026,0 3.618048,4.031985 3.93596,9.083894 0.146999,2.335944 1.246704,7.596178 2.443785,11.689396 l 2.176515,7.4422 0.933455,-4.001923 c 0.513407,-2.201071 1.48373,-5.631382 2.156284,-7.622958 0.698252,-2.067696 1.222808,-5.224329 1.222808,-7.358515 0,-4.998872 2.219064,-9.793804 4.33805,-9.373584 0.966757,0.1917 1.958183,-0.442137 2.954742,-1.889053 1.800397,-2.613998 5.759184,-5.313072 8.874239,-6.050392 l 2.269061,-0.537078 -1.701788,1.40967 c -5.173757,4.285644 -9.302342,11.85574 -10.840201,19.876355 -0.711508,3.710814 -1.143941,4.631846 -2.388724,5.087688 -2.489176,0.911543 -4.575457,3.635876 -6.30939,8.238998 l -1.633804,4.337277 z M 57.89284,71.774198 C 55.552887,69.989277 50.505601,67.215 46.676665,65.609117 39.455204,62.580425 35.917373,60.032603 33.51119,56.127816 c -1.350428,-2.191485 -1.224817,-2.152532 3.100175,0.961578 3.961479,2.85237 5.131099,3.286961 9.653387,3.586835 4.324255,0.286752 5.27306,0.108647 5.94316,-1.115511 0.985905,-1.801139 0.127708,-4.322812 -1.47117,-4.322812 -1.123715,0 -6.645457,-5.593285 -6.195395,-6.275658 0.143527,-0.21761 1.483271,0.05936 2.977192,0.615617 3.564401,1.327026 8.038893,6.018492 10.306779,10.806512 1.972251,4.16386 4.810238,12.976729 4.508698,14.000975 -0.102675,0.348775 -2.101204,-0.826232 -4.441176,-2.611154 z m 28.946478,1.010559 c 1.820001,-9.621557 7.204948,-19.059264 12.631103,-22.13736 1.803369,-1.023017 3.836629,-1.860017 4.518329,-1.860017 1.2088,0 1.20476,0.0352 -0.16309,1.424385 -0.77141,0.78341 -1.999,2.23478 -2.72797,3.225269 -0.72898,0.990476 -2.005317,1.800872 -2.836322,1.800872 -1.300627,0 -1.510916,0.359115 -1.510916,2.580207 v 2.580205 l 4.162208,0.254211 c 4.71311,0.287873 9.17816,-1.323948 13.13934,-4.743082 l 2.5527,-2.203375 -1.70179,2.761312 c -2.67069,4.333456 -4.54483,5.672404 -13.16432,9.405037 -7.671163,3.321966 -13.280331,6.793631 -14.057706,8.700685 -0.776131,1.904039 -1.320996,0.746211 -0.841566,-1.788349 z m -14.50945,-2.851295 c -0.243874,-1.970876 -0.134155,-3.55993 0.30062,-4.354204 0.940862,-1.718827 -2.389596,-9.973947 -6.209507,-15.39135 -4.673273,-6.627639 -11.352765,-9.702817 -17.746616,-8.170351 -1.604014,0.384411 -3.011789,0.554305 -3.128395,0.377527 -0.534849,-0.810934 7.277265,-5.656587 9.936004,-6.163048 2.692656,-0.512919 2.978138,-0.408281 2.978138,1.091623 0,3.73415 2.857475,4.935698 5.123058,2.154206 1.088771,-1.336721 1.19659,-1.941317 0.728515,-4.08533 -1.072851,-4.914191 -7.182347,-5.566542 -13.909909,-1.485263 -3.381556,2.051425 -3.140807,0.791106 0.510818,-2.674158 3.792887,-3.599322 10.878711,-7.934877 14.339797,-8.773996 2.9766,-0.72167 1.948278,-1.998981 -1.686906,-2.095368 -1.84615,-0.04894 -2.238669,-0.25355 -1.418157,-0.739204 0.623989,-0.369345 3.687218,-0.434253 6.807171,-0.144243 3.119954,0.289999 8.225336,0.293584 11.345291,0.0077 3.119953,-0.28563 6.183181,-0.220717 6.807169,0.144242 0.780716,0.456619 0.235253,0.680555 -1.749069,0.71807 -1.585973,0.03002 -3.057016,0.317463 -3.268981,0.638846 -0.211963,0.321371 1.668351,1.48328 4.178482,2.582023 5.791957,2.53525 15.421839,9.843939 14.604029,11.083869 -0.10934,0.165797 -1.847108,-0.4879 -3.861682,-1.452657 -7.335588,-3.512739 -12.455469,-2.013697 -12.455469,3.647004 0,4.525328 5.009359,5.95314 5.673457,1.617111 0.421744,-2.753549 1.945358,-3.094618 5.946381,-1.331115 2.799132,1.233759 7.399063,4.659476 6.982283,5.199949 -0.0913,0.118423 -1.5177,-0.0559 -3.16974,-0.387443 -9.195707,-1.845301 -17.521672,4.728224 -22.586953,17.8329 -1.311445,3.39286 -1.43782,4.291708 -0.904594,6.43355 0.768607,3.087349 -0.26527,7.801096 -1.172146,5.34414 -0.473307,-1.282264 -0.599564,-1.278917 -1.56201,0.04168 -0.996462,1.367261 -1.06565,1.286671 -1.431079,-1.666752 z m 5.018265,-20.343439 c 3.641894,-10.810541 3.521956,-21.21288 -0.291273,-25.262412 -1.961622,-2.083168 -3.775696,-1.623767 -5.818498,1.473468 -2.557726,3.87795 -2.909743,7.868827 -1.451996,16.461672 1.252151,7.380971 3.676029,14.558664 4.742139,14.042665 0.366242,-0.17727 1.635078,-3.199185 2.819628,-6.715393 z m -6.002764,-5.230965 c -1.007504,-2.683439 -1.003134,-2.725376 0.850904,-8.162035 1.024981,-3.005608 1.991238,-5.464737 2.14724,-5.464737 0.155992,0 1.134829,2.495929 2.175192,5.546499 1.883145,5.521808 1.887025,5.558156 0.87041,8.167479 -1.240315,3.183493 -1.777687,3.296183 -2.245399,0.47081 -0.19576,-1.1826 -0.555859,-2.150179 -0.800203,-2.150179 -0.244354,0 -0.604443,0.967579 -0.800213,2.150179 -0.468995,2.833189 -0.972703,2.70531 -2.197931,-0.558016 z M 15.998231,50.974365 C 12.847214,45.791417 12.95052,41.060099 16.332047,35.685713 l 1.479113,-2.350808 1.029154,2.565826 c 1.001578,2.497086 1.148374,2.565819 5.479461,2.565819 3.545022,0 4.985511,-0.410796 7.08125,-2.019462 l 2.630938,-2.019465 1.144521,1.847135 c 1.052431,1.698495 1.070986,1.958629 0.230621,3.232776 -2.065628,3.131843 -0.816614,7.26024 3.531148,11.671605 0.942472,0.956274 0.786304,1.030974 -1.183288,0.565991 -3.201897,-0.75589 -8.413552,-4.73653 -7.672438,-5.860193 0.319899,-0.48502 0.581632,-1.772021 0.581632,-2.860012 0,-1.817715 -0.246202,-1.978168 -3.035304,-1.978168 -3.772649,0 -6.429574,1.304053 -8.451797,4.148259 -1.64907,2.319368 -2.064696,5.92338 -0.888717,7.706361 0.369202,0.559769 0.534157,1.225628 0.36658,1.479728 -0.167581,0.254068 -1.363089,-1.278964 -2.65669,-3.40674 z m 114.461509,2.235018 c 2.10712,-5.969483 -1.29181,-10.913726 -8.17234,-11.887891 -3.18249,-0.450583 -3.72227,-0.316641 -4.05724,1.006786 -0.21249,0.839605 -0.0912,2.243133 0.26955,3.118944 0.57887,1.405346 0.32835,1.844057 -2.13264,3.734864 -1.53371,1.178337 -3.89455,2.394743 -5.24632,2.703112 l -2.45776,0.560667 1.93327,-2.044262 c 1.0633,-1.124339 2.46384,-3.129982 3.11232,-4.457013 1.13647,-2.325584 1.14356,-2.506517 0.19638,-5.008756 -0.73666,-1.946085 -0.83626,-3.010754 -0.39785,-4.252776 0.71924,-2.037597 0.78135,-2.03808 3.62757,-0.02794 1.26849,0.895887 4.17338,1.868455 6.4553,2.161301 4.07122,0.522445 4.18148,0.483143 5.88352,-2.097458 1.68392,-2.553099 1.76795,-2.584812 2.87831,-1.086206 1.36381,1.840643 2.68898,6.304092 2.68898,9.057022 0,2.404994 -2.42102,8.000407 -4.02462,9.301617 -1.05712,0.857797 -1.10936,0.784391 -0.55643,-0.782036 z M 108.81668,39.908791 c 0.47325,-8.01787 3.7044,-18.938341 6.90139,-23.324977 1.05142,-1.442683 1.09799,-1.367021 1.46933,2.387437 0.48719,4.925688 1.99903,7.454327 4.45685,7.454327 2.31916,0 3.75304,-2.232328 3.75304,-5.842933 0,-3.079523 -1.57389,-4.879908 -3.72181,-4.257369 -1.28535,0.372536 -1.30032,0.310065 -0.49308,-2.056728 1.25777,-3.687719 4.09166,-8.2734471 6.96537,-11.271166 l 2.57449,-2.6855937 -1.24433,3.0525998 c -2.49821,6.128669 -1.39294,17.3936179 2.4945,25.4240989 l 0.93568,1.932869 -2.63369,-0.547314 c -2.53903,-0.527649 -2.71501,-0.417724 -4.89568,3.057902 -2.17446,3.465692 -3.38504,3.935447 -3.38504,1.313531 0,-2.067634 -2.16955,-4.679621 -3.88695,-4.679621 -2.44798,0 -5.10898,3.280968 -7.4477,9.182868 l -2.10517,5.312546 z M 38.13771,39.030392 c -2.23902,-6.015134 -4.724796,-9.164538 -7.233443,-9.164538 -2.022564,0 -4.210958,2.421085 -4.210958,4.658712 0,2.388409 -1.438943,1.902902 -2.710307,-0.914465 -1.458025,-3.231017 -3.153548,-4.162569 -6.381526,-3.506128 l -2.216136,0.450676 1.657529,-3.139621 c 2.5312,-4.794518 3.46346,-9.035105 3.477603,-15.818663 C 20.530688,6.6980202 20.295134,5.0218133 19.31382,3.0093963 L 18.094484,0.50886315 19.902287,1.9262566 c 2.21391,1.7358028 6.146318,7.7003589 7.532176,11.4245864 l 1.024781,2.753901 h -1.904041 c -2.320579,0 -3.265477,1.294122 -3.265477,4.472361 0,3.093945 1.82363,5.848473 3.871971,5.848473 2.276831,0 3.986392,-3.13842 4.439443,-8.149939 l 0.378087,-4.182269 1.368893,2.510806 c 2.341757,4.295219 3.90128,8.349032 5.101839,13.261678 1.127942,4.615511 2.245426,13.76111 1.681445,13.76111 -0.155492,0 -1.052654,-2.068456 -1.993694,-4.596572 z M 40.426249,28.360734 C 40.079613,26.586839 39.678857,23.476101 39.535693,21.447974 39.119503,15.552202 37.062377,12.370363 30.485371,7.4494936 25.52014,3.7345473 25.026895,3.18651 26.976946,3.5514302 c 1.247976,0.2335313 3.757931,0.6697017 5.577666,0.9692706 4.287495,0.705809 8.939328,3.1625531 12.443192,6.5715502 l 2.796315,2.720597 -1.845227,0.930933 c -2.363555,1.192429 -3.294232,3.301032 -2.277118,5.159185 0.604888,1.105041 2.097894,1.373184 7.908803,1.420405 7.583784,0.06166 7.612029,0.21101 0.639625,3.383101 -2.339963,1.06456 -5.714999,3.047955 -7.500072,4.407545 -1.785079,1.359587 -3.339648,2.471979 -3.454605,2.471979 -0.114963,0 -0.492629,-1.451369 -0.839276,-3.225262 z m 64.106861,0.604972 c -1.95945,-1.35176 -5.405574,-3.302957 -7.658066,-4.335997 -2.252493,-1.033026 -4.478347,-2.1159 -4.946343,-2.406378 -0.467997,-0.290472 1.957066,-0.623576 5.389014,-0.740229 7.598305,-0.25827 8.792595,-0.626262 8.792595,-2.709227 0,-1.941984 -1.11018,-3.438066 -3.17146,-4.273891 -1.53953,-0.624265 -1.53732,-0.630096 1.28587,-3.376839 3.53358,-3.4379048 8.17551,-5.8946695 12.47495,-6.6024442 1.81975,-0.2995689 4.32969,-0.7357393 5.57767,-0.9692706 1.95006,-0.3649202 1.4568,0.1831171 -3.50842,3.8980634 -7.08924,5.3041204 -8.59384,7.8825814 -9.245,15.8432614 -0.69164,8.45564 -0.79193,8.569637 -4.99081,5.672951 z"
       id="path12760"
 />
  </g>
</svg>
